<svg width="236" height="134" viewBox="0 0 236 134" fill="none" xmlns="http://www.w3.org/2000/svg">
<g clip-path="url(#clip0_443_3094)">
<path d="M76.7812 0V73.553H116.722V57.8949H94.6814V0H76.7812Z" fill="#0E68B0"/>
<mask id="mask0_443_3094" style="mask-type:alpha" maskUnits="userSpaceOnUse" x="0" y="0" width="236" height="134">
<path d="M236 0H0V134H236V0Z" fill="white"/>
</mask>
<g mask="url(#mask0_443_3094)">
<path d="M184.43 42.3284C184.94 39.6635 185.789 37.492 186.964 35.8071C188.146 34.1292 189.696 32.8954 191.621 32.1199C193.547 31.3444 195.904 30.9567 198.699 30.9567C201.488 30.9567 203.852 31.3444 205.777 32.1199C207.703 32.8954 209.26 34.1221 210.435 35.8071C211.617 37.492 212.459 39.6635 212.969 42.3284C213.478 44.9933 213.733 48.2151 213.733 51.994C213.733 55.7728 213.478 58.9947 212.969 61.6596C212.459 64.3245 211.61 66.4959 210.435 68.1808C209.253 69.8658 207.703 71.0643 205.777 71.7834C203.852 72.5025 201.488 72.8621 198.699 72.8621C195.904 72.8621 193.547 72.5025 191.621 71.7834C189.696 71.0643 188.139 69.8658 186.964 68.1808C185.782 66.5029 184.94 64.3245 184.43 61.6596C183.921 58.9947 183.666 55.7728 183.666 51.994C183.659 48.2151 183.914 44.9933 184.43 42.3284ZM195.104 58.762C195.182 60.5598 195.351 61.9839 195.606 63.0414C195.861 64.0989 196.236 64.8391 196.725 65.2551C197.213 65.671 197.871 65.8755 198.699 65.8755C199.527 65.8755 200.186 65.671 200.674 65.2551C201.162 64.8391 201.538 64.1059 201.792 63.0414C202.047 61.9839 202.217 60.5598 202.295 58.762C202.373 56.9713 202.415 54.7082 202.415 51.9869C202.415 49.2656 202.373 47.0096 202.295 45.2118C202.217 43.4211 202.047 41.99 201.792 40.9325C201.538 39.875 201.162 39.1418 200.674 38.7188C200.179 38.3028 199.527 38.0984 198.699 38.0984C197.871 38.0984 197.213 38.3028 196.725 38.7188C196.229 39.1347 195.861 39.875 195.606 40.9325C195.351 41.99 195.182 43.4141 195.104 45.2118C195.026 47.0096 194.983 49.2656 194.983 51.9869C194.991 54.7082 195.026 56.9713 195.104 58.762ZM180.417 50.2315V72.2205H172.985L172.752 68.6532H172.631C172.277 69.5204 171.775 70.2395 171.124 70.8035C170.473 71.3675 169.743 71.7975 168.944 72.0795C168.137 72.3615 167.273 72.5589 166.346 72.6788C165.419 72.7916 164.485 72.848 163.543 72.848C160.747 72.848 158.546 72.4038 156.939 71.5155C155.326 70.6272 154.108 69.2947 153.28 67.5181C152.452 65.7415 151.935 63.549 151.716 60.9405C151.497 58.332 151.39 55.3498 151.39 51.9869C151.39 48.5888 151.596 45.5855 152.013 42.977C152.424 40.3685 153.209 38.1759 154.37 36.3993C155.531 34.6227 157.131 33.2761 159.176 32.3455C161.222 31.422 163.855 30.9567 167.082 30.9567C169.007 30.9567 170.791 31.2034 172.419 31.6899C174.047 32.1834 175.455 32.973 176.637 34.0728C177.819 35.1726 178.74 36.5755 179.412 38.2958C180.077 40.016 180.417 42.1028 180.417 44.5562H169.8C169.8 42.4059 169.602 40.8338 169.213 39.8538C168.816 38.6835 167.974 38.0984 166.679 38.0984C165.773 38.0984 165.058 38.3028 164.527 38.7188C163.996 39.1347 163.6 39.875 163.345 40.9325C163.09 41.99 162.92 43.4141 162.842 45.2118C162.765 47.0096 162.722 49.2656 162.722 51.9869C162.722 54.7082 162.765 56.9642 162.842 58.762C162.92 60.5598 163.09 61.9839 163.345 63.0414C163.6 64.0989 163.975 64.8391 164.463 65.2551C164.952 65.671 165.61 65.8755 166.438 65.8755C167.026 65.8755 167.549 65.7627 168.002 65.5371C168.455 65.3115 168.838 64.8885 169.149 64.261C169.46 63.6336 169.708 62.7664 169.885 61.6525C170.062 60.5386 170.154 59.1145 170.154 57.3731H166.261V50.2315H180.417ZM118.832 42.3284C119.341 39.6635 120.191 37.492 121.366 35.8071C122.548 34.1292 124.098 32.8954 126.023 32.1199C127.948 31.3444 130.305 30.9567 133.101 30.9567C135.89 30.9567 138.254 31.3444 140.179 32.1199C142.104 32.8954 143.661 34.1221 144.836 35.8071C146.018 37.492 146.86 39.6635 147.37 42.3284C147.88 44.9933 148.135 48.2151 148.135 51.994C148.135 55.7728 147.88 58.9947 147.37 61.6596C146.86 64.3245 146.011 66.4959 144.836 68.1808C143.654 69.8658 142.104 71.0643 140.179 71.7834C138.254 72.5025 135.89 72.8621 133.101 72.8621C130.305 72.8621 127.948 72.5025 126.023 71.7834C124.098 71.0643 122.541 69.8658 121.366 68.1808C120.184 66.5029 119.341 64.3245 118.832 61.6596C118.322 58.9947 118.067 55.7728 118.067 51.994C118.067 48.2151 118.322 44.9933 118.832 42.3284ZM129.512 58.762C129.59 60.5598 129.76 61.9839 130.015 63.0414C130.27 64.0989 130.645 64.8391 131.133 65.2551C131.622 65.671 132.28 65.8755 133.108 65.8755C133.936 65.8755 134.594 65.671 135.083 65.2551C135.571 64.8391 135.946 64.1059 136.201 63.0414C136.456 61.9839 136.626 60.5598 136.704 58.762C136.781 56.9713 136.824 54.7082 136.824 51.9869C136.824 49.2656 136.781 47.0096 136.704 45.2118C136.626 43.4211 136.456 41.99 136.201 40.9325C135.946 39.875 135.571 39.1418 135.083 38.7188C134.587 38.3028 133.936 38.0984 133.108 38.0984C132.28 38.0984 131.622 38.3028 131.133 38.7188C130.638 39.1347 130.27 39.875 130.015 40.9325C129.76 41.99 129.59 43.4141 129.512 45.2118C129.435 47.0096 129.392 49.2656 129.392 51.9869C129.392 54.7082 129.427 56.9713 129.512 58.762Z" stroke="#0E68B0" stroke-width="2"/>
</g>
<mask id="mask1_443_3094" style="mask-type:alpha" maskUnits="userSpaceOnUse" x="0" y="0" width="236" height="134">
<path d="M236 0H0V134H236V0Z" fill="white"/>
</mask>
<g mask="url(#mask1_443_3094)">
<path d="M203.427 78.2554L207.596 93.4764H207.667V78.2554H213.712V102.952H206.627L202.323 87.6954H202.252V102.952H196.208V78.2554H203.427ZM176.616 84.7062C176.92 83.0776 177.416 81.7522 178.109 80.73C178.803 79.7007 179.716 78.9534 180.856 78.481C181.988 78.0087 183.375 77.776 185.025 77.776C186.667 77.776 188.061 78.0087 189.194 78.481C190.326 78.9534 191.239 79.7077 191.94 80.73C192.633 81.7593 193.129 83.0847 193.433 84.7062C193.738 86.3347 193.886 88.3017 193.886 90.6C193.886 92.9054 193.738 94.8723 193.433 96.5009C193.136 98.1295 192.633 99.4549 191.94 100.477C191.246 101.506 190.333 102.233 189.194 102.677C188.061 103.114 186.667 103.332 185.025 103.332C183.383 103.332 181.988 103.114 180.856 102.677C179.723 102.24 178.81 101.506 178.109 100.477C177.416 99.4478 176.92 98.1224 176.616 96.5009C176.312 94.8723 176.163 92.9124 176.163 90.6C176.163 88.3017 176.312 86.3347 176.616 84.7062ZM182.901 94.7384C182.951 95.8311 183.043 96.7053 183.198 97.3469C183.347 97.9955 183.567 98.4397 183.857 98.6935C184.147 98.9473 184.536 99.0742 185.018 99.0742C185.506 99.0742 185.888 98.9473 186.178 98.6935C186.469 98.4397 186.688 97.9885 186.837 97.3469C186.985 96.6983 187.084 95.8311 187.134 94.7384C187.183 93.6456 187.205 92.2638 187.205 90.6071C187.205 88.9503 187.183 87.5685 187.134 86.4757C187.084 85.383 186.992 84.5088 186.837 83.8672C186.688 83.2186 186.469 82.7745 186.178 82.5207C185.888 82.2669 185.499 82.14 185.018 82.14C184.529 82.14 184.14 82.2669 183.857 82.5207C183.567 82.7745 183.347 83.2257 183.198 83.8672C183.05 84.5158 182.951 85.383 182.901 86.4757C182.852 87.5685 182.83 88.9503 182.83 90.6071C182.83 92.2638 182.852 93.6456 182.901 94.7384ZM174.082 102.952H167.62V78.2554H174.082V102.952ZM150.293 83.7262V78.2554H166.403V83.7192H161.54V102.952H155.085V83.7192H150.293V83.7262ZM142.656 82.8943C142.38 82.3867 141.927 82.1329 141.304 82.1329C140.816 82.1329 140.426 82.2598 140.143 82.5136C139.853 82.7674 139.634 83.2186 139.485 83.8602C139.336 84.5017 139.237 85.3759 139.188 86.4687C139.138 87.5615 139.117 88.9433 139.117 90.6C139.117 92.2568 139.138 93.6386 139.188 94.7313C139.237 95.8241 139.329 96.6983 139.485 97.3399C139.634 97.9885 139.853 98.4326 140.143 98.6864C140.434 98.9402 140.823 99.0671 141.304 99.0671C141.701 99.0671 142.019 98.9684 142.274 98.771C142.529 98.5736 142.727 98.2493 142.861 97.784C143.003 97.3257 143.102 96.7053 143.159 95.9369C143.215 95.1614 143.244 94.1885 143.244 93.0111H149.493V94.8441C149.493 96.5714 149.26 97.9884 148.8 99.0953C148.34 100.202 147.724 101.076 146.959 101.704C146.195 102.338 145.324 102.768 144.341 102.987C143.357 103.205 142.345 103.318 141.304 103.318C139.499 103.318 138.013 103.1 136.859 102.663C135.698 102.226 134.8 101.492 134.148 100.463C133.497 99.4337 133.058 98.1083 132.811 96.4868C132.57 94.8582 132.45 92.8983 132.45 90.5859C132.45 88.2312 132.591 86.236 132.881 84.6004C133.172 82.9648 133.66 81.6394 134.361 80.6242C135.054 79.609 135.967 78.8758 137.107 78.4246C138.239 77.9734 139.641 77.7478 141.311 77.7478C142.769 77.7478 144.008 77.9311 145.027 78.2977C146.046 78.6643 146.874 79.1931 147.512 79.8699C148.149 80.5467 148.609 81.3715 148.899 82.3233C149.189 83.2821 149.331 84.3607 149.331 85.5592V87.1173H143.081V85.7355C143.074 84.3607 142.932 83.4019 142.656 82.8943ZM120.049 96.0708C120.049 97.2694 120.219 98.073 120.573 98.4749C120.92 98.8767 121.394 99.0812 121.995 99.0812C122.597 99.0812 123.071 98.8767 123.418 98.4749C123.765 98.073 123.942 97.2694 123.942 96.0708V78.2554H130.397V94.4423C130.397 96.1695 130.213 97.6148 129.838 98.764C129.47 99.9202 128.932 100.837 128.224 101.535C127.516 102.226 126.646 102.698 125.605 102.952C124.565 103.205 123.362 103.332 121.995 103.332C120.651 103.332 119.455 103.205 118.4 102.952C117.345 102.698 116.468 102.226 115.76 101.535C115.052 100.844 114.514 99.9202 114.146 98.764C113.778 97.6148 113.587 96.1695 113.587 94.4423V78.2554H120.049V96.0708V96.0708ZM104.039 78.2554C105.263 78.2554 106.311 78.4176 107.181 78.7419C108.052 79.0662 108.753 79.5174 109.298 80.1096C109.843 80.6947 110.239 81.3927 110.48 82.2034C110.72 83.0071 110.848 83.8884 110.848 84.8331C110.848 86.4969 110.508 87.8293 109.843 88.8446C109.17 89.8598 108.094 90.4802 106.615 90.7128V90.7833C108.165 90.9243 109.234 91.4672 109.807 92.4119C110.388 93.3566 110.678 94.6608 110.678 96.3176V98.4256V99.4267C110.678 99.7721 110.692 100.103 110.713 100.414C110.734 100.724 110.77 101.006 110.819 101.26C110.869 101.513 110.926 101.711 110.996 101.845C111.088 101.986 111.18 102.113 111.272 102.24C111.364 102.367 111.513 102.486 111.725 102.599V102.945H104.853C104.69 102.62 104.57 102.24 104.485 101.803C104.4 101.365 104.343 100.928 104.315 100.491C104.279 100.054 104.258 99.6311 104.244 99.2293C104.23 98.8274 104.23 98.4961 104.23 98.2423V96.5784C104.23 95.8875 104.194 95.3094 104.124 94.8512C104.053 94.3929 103.933 94.0263 103.763 93.7584C103.593 93.4905 103.366 93.3072 103.104 93.2015C102.835 93.0957 102.51 93.0464 102.114 93.0464H100.415V102.938H93.9527V78.2554H104.039ZM101.675 88.7036C102.602 88.7036 103.281 88.4357 103.727 87.8928C104.166 87.3499 104.386 86.6449 104.386 85.7637C104.386 84.7273 104.173 83.9871 103.741 83.55C103.317 83.1129 102.616 82.8943 101.639 82.8943H100.387V88.7036H101.675V88.7036ZM76.364 83.7262V78.2554H92.4805V83.7192H87.6179V102.952H81.1557V83.7192H76.364V83.7262ZM68.8967 84.7978C68.8967 84.0576 68.7481 83.4301 68.4437 82.9155C68.1394 82.3938 67.6793 82.14 67.0565 82.14C66.3628 82.14 65.8532 82.3656 65.5276 82.8168C65.2021 83.268 65.0393 83.7685 65.0393 84.3184C65.0393 85.1292 65.3011 85.7637 65.8178 86.236C66.3416 86.7084 66.9928 87.1173 67.7784 87.4627C68.5641 87.8082 69.4134 88.1607 70.3123 88.5203C71.2183 88.8798 72.0606 89.3451 72.8462 89.9232C73.6319 90.5013 74.2901 91.2557 74.8068 92.1863C75.3306 93.1169 75.5854 94.3365 75.5854 95.8382C75.5854 98.4679 74.8351 100.371 73.3275 101.563C71.8199 102.747 69.647 103.346 66.8017 103.346C65.4569 103.346 64.2748 103.234 63.2415 103.015C62.2081 102.797 61.3446 102.416 60.6368 101.873C59.929 101.33 59.3911 100.625 59.023 99.7439C58.6549 98.8697 58.4638 97.784 58.4638 96.4938V95.6267H64.7137V96.2118C64.7137 97.2764 64.9119 98.0167 65.3011 98.4397C65.6975 98.8697 66.2071 99.0812 66.83 99.0812C67.5024 99.0812 68.0191 98.8486 68.373 98.3903C68.7339 97.932 68.9109 97.361 68.9109 96.6983C68.9109 95.8946 68.6632 95.253 68.1677 94.7807C67.6723 94.3083 67.0423 93.9065 66.2921 93.5681C65.5418 93.2297 64.7207 92.8913 63.8431 92.5458C62.9654 92.2004 62.1444 91.7492 61.3941 91.1993C60.6439 90.6494 60.0139 89.9162 59.5185 89.0208C59.023 88.1255 58.7753 86.9481 58.7753 85.4958C58.7753 82.986 59.4477 81.0684 60.7925 79.7571C62.1373 78.4458 64.1757 77.7831 66.9078 77.7831C69.7319 77.7831 71.7775 78.3894 73.0373 79.5949C74.2972 80.8075 74.9272 82.7392 74.9272 85.39H68.8826V84.7978H68.8967ZM45.9076 78.2554L50.0765 93.4764H50.1473V78.2554H56.1918V102.952H49.1068L44.8034 87.6954H44.7326V102.952H38.6881V78.2554H45.9076ZM19.0963 84.7062C19.4007 83.0776 19.8961 81.7522 20.5897 80.73C21.2834 79.7007 22.1964 78.9534 23.336 78.481C24.4685 78.0087 25.8628 77.776 27.5049 77.776C29.147 77.776 30.5343 78.0087 31.6738 78.481C32.8063 78.9534 33.7264 79.7077 34.4201 80.73C35.1137 81.7593 35.6162 83.0847 35.9135 84.7062C36.2108 86.3277 36.3665 88.3017 36.3665 90.6C36.3665 92.9054 36.2179 94.8723 35.9135 96.5009C35.6092 98.1295 35.1137 99.4549 34.4201 100.477C33.7264 101.506 32.8134 102.233 31.6738 102.677C30.5343 103.121 29.147 103.332 27.5049 103.332C25.8628 103.332 24.4685 103.114 23.336 102.677C22.2035 102.24 21.2905 101.506 20.5897 100.477C19.8961 99.4478 19.4007 98.1224 19.0963 96.5009C18.799 94.8723 18.6433 92.9124 18.6433 90.6C18.6504 88.3017 18.799 86.3347 19.0963 84.7062ZM25.3815 94.7384C25.424 95.8311 25.5231 96.7053 25.6788 97.3469C25.8274 97.9955 26.0468 98.4397 26.337 98.6935C26.6272 98.9473 27.0165 99.0742 27.4978 99.0742C27.9791 99.0742 28.3684 98.9473 28.6586 98.6935C28.9488 98.4397 29.1682 97.9885 29.3169 97.3469C29.4655 96.6983 29.5646 95.8311 29.6141 94.7384C29.6566 93.6456 29.6849 92.2638 29.6849 90.6071C29.6849 88.9503 29.6637 87.5685 29.6141 86.4757C29.5646 85.383 29.4726 84.5088 29.3169 83.8672C29.1682 83.2186 28.9488 82.7745 28.6586 82.5207C28.3684 82.2669 27.9791 82.14 27.4978 82.14C27.0165 82.14 26.6202 82.2669 26.337 82.5207C26.0468 82.7745 25.8274 83.2257 25.6788 83.8672C25.5302 84.5158 25.4311 85.383 25.3815 86.4757C25.332 87.5685 25.3107 88.9503 25.3107 90.6071C25.3107 92.2638 25.3391 93.6456 25.3815 94.7384ZM10.2135 82.8943C9.93744 82.3867 9.48445 82.1329 8.86159 82.1329C8.37321 82.1329 7.98392 82.2598 7.70081 82.5136C7.41061 82.7674 7.19119 83.2186 7.04256 83.8602C6.89392 84.5088 6.79483 85.3759 6.74528 86.4687C6.69574 87.5615 6.6745 88.9433 6.6745 90.6C6.6745 92.2568 6.69574 93.6386 6.74528 94.7313C6.78775 95.8241 6.88684 96.6983 7.04256 97.3399C7.19119 97.9885 7.41061 98.4326 7.70081 98.6864C7.991 98.9402 8.38029 99.0671 8.86159 99.0671C9.25088 99.0671 9.57646 98.9684 9.83127 98.771C10.0861 98.5736 10.2843 98.2493 10.4187 97.784C10.5603 97.3257 10.6594 96.7053 10.716 95.9369C10.7726 95.1614 10.8009 94.1885 10.8009 93.0111H17.0508V94.8441C17.0508 96.5714 16.8172 97.9884 16.3571 99.0953C15.8971 100.202 15.2813 101.076 14.5169 101.704C13.7525 102.338 12.8819 102.768 11.898 102.987C10.9142 103.205 9.90205 103.318 8.86159 103.318C7.05671 103.318 5.57742 103.1 4.41664 102.663C3.25586 102.226 2.35696 101.492 1.70579 100.463C1.05461 99.4337 0.608703 98.1083 0.368053 96.4868C0.120325 94.8794 0 92.9124 0 90.6071C0 88.2524 0.141559 86.2572 0.431755 84.6216C0.721951 82.986 1.21033 81.6606 1.91105 80.6454C2.60468 79.6302 3.51774 78.897 4.65729 78.4458C5.78976 77.9946 7.19119 77.769 8.86159 77.769C10.3196 77.769 11.5583 77.9523 12.5775 78.3189C13.5967 78.6855 14.4249 79.2142 15.0619 79.891C15.6989 80.5678 16.159 81.3927 16.4491 82.3444C16.7393 83.3032 16.8809 84.3819 16.8809 85.5804V87.1384H10.6311V85.7566C10.624 84.3607 10.4895 83.4019 10.2135 82.8943Z" fill="#0E68B0"/>
</g>
<mask id="mask2_443_3094" style="mask-type:alpha" maskUnits="userSpaceOnUse" x="0" y="0" width="236" height="134">
<path d="M236 0H0V134H236V0Z" fill="white"/>
</mask>
<g mask="url(#mask2_443_3094)">
<path d="M225.362 107.95L229.531 123.171H229.602V107.95H235.646V132.646H228.561L224.258 117.39H224.187V132.646H218.142V107.95H225.362V107.95ZM198.558 114.401C198.855 112.772 199.357 111.447 200.051 110.425C200.745 109.395 201.658 108.648 202.797 108.176C203.93 107.703 205.324 107.464 206.966 107.464C208.608 107.464 209.996 107.703 211.135 108.176C212.268 108.648 213.181 109.395 213.881 110.425C214.575 111.454 215.071 112.779 215.375 114.401C215.672 116.029 215.828 117.996 215.828 120.302C215.828 122.607 215.679 124.574 215.375 126.203C215.071 127.831 214.575 129.157 213.881 130.179C213.188 131.208 212.275 131.941 211.135 132.378C210.003 132.816 208.608 133.034 206.966 133.034C205.324 133.034 203.93 132.816 202.797 132.378C201.665 131.941 200.752 131.208 200.051 130.179C199.357 129.157 198.862 127.824 198.558 126.203C198.253 124.574 198.105 122.614 198.105 120.302C198.105 117.996 198.253 116.029 198.558 114.401ZM204.843 124.433C204.892 125.526 204.984 126.4 205.14 127.042C205.289 127.69 205.508 128.134 205.798 128.388C206.089 128.642 206.478 128.769 206.959 128.769C207.448 128.769 207.83 128.642 208.12 128.388C208.41 128.134 208.63 127.683 208.778 127.042C208.927 126.393 209.026 125.526 209.076 124.433C209.125 123.34 209.146 121.958 209.146 120.302C209.146 118.645 209.125 117.263 209.076 116.17C209.026 115.078 208.934 114.203 208.778 113.562C208.63 112.92 208.41 112.469 208.12 112.215C207.83 111.962 207.44 111.835 206.959 111.835C206.471 111.835 206.082 111.962 205.798 112.215C205.508 112.469 205.289 112.92 205.14 113.562C204.992 114.211 204.892 115.078 204.843 116.17C204.793 117.263 204.772 118.645 204.772 120.302C204.772 121.958 204.793 123.34 204.843 124.433ZM196.024 132.653H189.562V107.957H196.024V132.653ZM172.235 113.421V107.957H188.344V113.421H183.482V132.653H177.019V113.421H172.235ZM170.947 132.653H164.484V107.957H170.947V132.653ZM151.397 107.95L155.566 123.171H155.637V107.95H161.682V132.646H154.597L150.293 117.39H150.222V132.646H144.178V107.95H151.397V107.95ZM141.361 132.653H134.899V107.957H141.361V132.653ZM133.129 107.95V113.209H124.897V117.432H132.605V122.48H124.897V132.646H118.435V107.95H133.129ZM115.767 107.95V113.209H107.535V117.432H115.243V122.48H107.535V127.394H116.078V132.653H101.073V107.957H115.767V107.95ZM88.892 128.014C89.5148 128.014 90.0173 127.93 90.3854 127.754C90.7535 127.577 91.0366 127.218 91.2348 126.661C91.4329 126.104 91.5603 125.321 91.617 124.306C91.6736 123.291 91.7019 121.951 91.7019 120.295C91.7019 118.638 91.6736 117.298 91.617 116.283C91.5603 115.268 91.4329 114.485 91.2348 113.929C91.0366 113.372 90.7535 113.012 90.3854 112.836C90.0173 112.667 89.5148 112.575 88.892 112.575H87.6038V128H88.892V128.014ZM90.5199 107.95C92.3955 107.95 93.8536 108.288 94.8941 108.972C95.9345 109.656 96.7202 110.566 97.2369 111.708C97.7606 112.85 98.0721 114.161 98.1924 115.649C98.3056 117.136 98.3622 118.687 98.3622 120.302C98.3622 121.916 98.3056 123.467 98.1924 124.955C98.0791 126.442 97.7606 127.761 97.2369 128.896C96.7131 130.038 95.9345 130.947 94.8941 131.631C93.8536 132.315 92.3955 132.653 90.5199 132.653H81.1416V107.957H90.5199V107.95Z" stroke="#0E68B0"/>
</g>
<mask id="mask3_443_3094" style="mask-type:alpha" maskUnits="userSpaceOnUse" x="0" y="0" width="236" height="134">
<path d="M236 0H0V134H236V0Z" fill="white"/>
</mask>
<g mask="url(#mask3_443_3094)">
<path d="M60.7363 132.639L57.8839 128.79C56.6524 129.523 55.4633 130.193 54.2954 130.806C53.1275 131.42 51.9172 131.92 50.6644 132.322C49.4045 132.717 48.0739 133.041 46.6654 133.281C45.2498 133.528 43.6926 133.648 41.9727 133.648C39.2123 133.648 36.6218 133.295 34.2011 132.597C31.7805 131.899 29.65 130.799 27.8097 129.298C25.9695 127.803 24.5114 125.907 23.4426 123.615C22.3668 121.324 21.8359 118.624 21.8359 115.508C21.8359 111.658 22.8339 108.098 24.8228 104.834C26.8117 101.57 29.926 98.7992 34.1586 96.5432C32.5024 94.2872 31.0443 91.8831 29.7916 89.3522C28.5317 86.8142 27.9017 84.2691 27.9017 81.7029C27.9017 79.4469 28.3477 77.3812 29.2395 75.52C30.1313 73.6588 31.3841 72.0514 33.012 70.7119C34.6399 69.3724 36.5864 68.329 38.8513 67.5958C41.1163 66.8626 43.6643 66.496 46.4884 66.496C49.3692 66.496 51.9597 66.8626 54.26 67.5958C56.5604 68.329 58.5209 69.3653 60.1489 70.7119C61.7697 72.0585 63.0296 73.6588 63.9214 75.52C64.8132 77.3812 65.2521 79.4469 65.2521 81.7029C65.2521 84.8825 64.2682 87.8858 62.3076 90.7269C60.3471 93.5681 57.523 96.1484 53.8424 98.4679L61.2955 108.458C61.9679 107.358 62.4775 106.152 62.8102 104.841C63.1428 103.53 63.3764 102.169 63.4967 100.766H77.8508C77.6668 104.432 76.9944 107.978 75.8265 111.398C74.6587 114.817 72.7618 117.813 70.1217 120.379L78.955 132.661H60.7363V132.639ZM42.7088 83.8884C43.3812 85.1081 44.4854 86.7014 46.0213 88.6542C48.0456 86.8212 49.4541 85.2632 50.2539 83.9801C51.0466 82.697 51.4501 81.5689 51.4501 80.589C51.4501 79.2495 50.99 78.1497 50.0699 77.2896C49.1497 76.4365 47.9819 76.0065 46.5734 76.0065C45.1649 76.0065 43.997 76.4365 43.0769 77.2896C42.1567 78.1426 41.6967 79.2495 41.6967 80.589C41.6967 81.5689 42.0293 82.6687 42.7088 83.8884ZM38.8442 110.418C38.1718 111.609 37.8321 112.695 37.8321 113.668C37.8321 114.704 38.0303 115.684 38.4266 116.601C38.823 117.517 39.3609 118.314 40.0404 118.983C40.7128 119.653 41.4631 120.175 42.2912 120.542C43.1193 120.908 43.997 121.091 44.91 121.091C45.8868 121.091 46.9202 120.866 47.989 120.401C49.0577 119.942 49.9354 119.442 50.6149 118.892L41.8736 107.069C40.5288 108.112 39.5167 109.226 38.8442 110.418Z" stroke="#0E68B0"/>
</g>
</g>
<defs>
<clipPath id="clip0_443_3094">
<rect width="236" height="134" fill="white"/>
</clipPath>
</defs>
</svg>
